<?xml version="1.0" encoding="utf-8"?>
<!-- Generator: Adobe Illustrator 28.0.0, SVG Export Plug-In . SVG Version: 6.00 Build 0)  -->
<svg version="1.1" id="Слой_1" xmlns="http://www.w3.org/2000/svg" xmlns:xlink="http://www.w3.org/1999/xlink" x="0px" y="0px"
	 viewBox="0 0 1000 1000" enable-background="new 0 0 1000 1000" xml:space="preserve">
<path fill="#0077FF" d="M70.2970123,70.2940369C2.1060181,138.4860229,0.0659943,246.9950104,0.0049973,459.9900208
	c190.8800049,0,310.0560303-81.9400024,414.5930176-153.8279724C496.2640381,250.007019,569,199.9939728,660,199.9939728
	c135.4599609,0,253.7299805,95.7740021,316.4399414,146.556015c8.8400879,7.1600342,16.5800781,13.4300232,23.1101074,18.4100342
	c-1.9799805-151.8659973-12.6300049-237.4549866-69.8400879-294.6659851C859.4099121,0,746.2799683,0,520.0029907,0h-40
	C253.7290192,0,140.5920105,0,70.2970123,70.2940369z"/>
<path fill="#0077FF" d="M450.6030273,999.9899292C460.1849976,1000,469.9829712,1000,480.0029907,1000h40
	c10.0189819,0,19.81604,0,29.3980103-0.0100708H450.6030273z"/>
<path fill="#F45FFF" d="M0.0019836,459.9900208c190.8800507,0,310.0559998-81.9400024,414.5930481-153.8279724
	C496.2609863,250.007019,568.9899902,199.9939728,660,199.9939728c135.4499512,0,253.7299805,95.7740021,316.4399414,146.556015
	c8.8400879,7.1600342,16.5800781,13.4300232,23.1101074,18.4100342C1000,399.690033,1000,437.8800354,1000,480v40
	c0,226.2700195,0,339.4099731-70.2900391,409.7099609c-67.1899414,67.1799927-173.499939,70.1499634-380.3199463,70.2799683
	h-98.7820435c-206.8149414-0.1300049-313.1309814-3.0999756-380.3139648-70.2799683C0,859.4099731,0,746.2700195,0,520v-40
	C0,473.2299805,0,466.5599976,0.0019836,459.9900208z"/>
<path fill="#FFFFFF" d="M775,509.75c0-24.710022,20.289978-44.75,45-44.75l0,0c24.7199707,0,45,20.039978,45,44.75v180.499939
	C865,714.9699707,844.7199707,735,820,735l0,0c-24.710022,0-45-20.0300293-45-44.750061V509.75z"/>
<path fill="#FFFFFF" d="M615.0100098,394.75c0-24.710022,20.289978-44.75,45-44.75l0,0c24.7099609,0,45,20.039978,45,44.75
	v410.499939c0,24.7200317-20.2900391,44.750061-45,44.750061l0,0c-24.710022,0-45-20.0300293-45-44.750061V394.75z"/>
<path fill="#FFFFFF" d="M455.0100098,509.75c0-24.710022,20.2850342-44.75,45-44.75l0,0c24.7150269,0,45,20.039978,45,44.75
	v180.499939c0,24.710083-20.2849731,44.750061-45,44.750061l0,0c-24.7149658,0-45-20.039978-45-44.750061V509.75z"/>
<path fill="#FFFFFF" d="M294.9899902,574.75c0-24.7200317,20.2849731-44.75,45-44.75l0,0c24.7149658,0,45,20.0299683,45,44.75
	v50.499939c0,24.710083-20.2850342,44.750061-45,44.750061l0,0c-24.7150269,0-45-20.039978-45-44.750061V574.75z"/>
<path fill="#FFFFFF" d="M134.9900055,574.75c0-24.7200317,20.2849884-44.75,45-44.75l0,0c24.7149658,0,45,20.0299683,45,44.75
	v50.499939c0,24.710083-20.2850342,44.750061-45,44.750061l0,0c-24.7150116,0-45-20.039978-45-44.750061V574.75z"/>
</svg>
